# xmcd
#
# Track frame offsets:
#	150
#	13114
#	29725
#	43380
#	61981
#	76226
#	95750
#	112988
#	133197
#
# Disc length: 2022 seconds
#
# Revision: 0
# Processed by: cddbd v1.5.2PL0 Copyright (c) Steve Scherf et al.
# Submitted via: EasyCDDAExtractor 12.0.0.1
#
DISCID=7c07e409
DTITLE=Amanda Miguel - El Sonido Vol. 1
DYEAR=1981
DGENRE=Latin
TTITLE0=Asi No Te Amara Jamas
TTITLE1=El Me Mintio
TTITLE2=Quiero Un Amor Total
TTITLE3=Quien Sera
TTITLE4=Amanda Al Piano
TTITLE5=Mi Buen Corazon
TTITLE6=Hagamos Un Trato
TTITLE7=Donde Brilla El Sol
TTITLE8=Siempre Te Amare
EXTD=
EXTT0=
EXTT1=
EXTT2=
EXTT3=
EXTT4=
EXTT5=
EXTT6=
EXTT7=
EXTT8=
PLAYORDER=
